<svg width="81" height="60" viewBox="0 0 81 60" fill="none" xmlns="http://www.w3.org/2000/svg">
<path d="M76.8135 18.3588L70.0986 0.205688H36.0008L32.0284 10.9444H11.378L4.41895 29.7575C1.78492 31.2168 0 34.0005 0 37.1895V45.5743C0 48.1111 1.61579 50.281 3.88389 51.1361V52.6217C3.88389 56.5767 7.14174 59.7942 11.146 59.7942C15.1505 59.7942 18.4083 56.5766 18.4083 52.6217V51.5261H39.8853V52.6217C39.8853 56.5767 43.1431 59.7942 47.1474 59.7942C51.1519 59.7942 54.4097 56.5766 54.4097 52.6217V51.1361C56.6778 50.281 58.2936 48.1111 58.2936 45.5743V39.1835H63.2022V40.1254C63.2022 43.9614 66.362 47.0821 70.2459 47.0821C74.1297 47.0821 77.2897 43.9612 77.2897 40.1254V38.7257C79.4663 37.8274 81 35.7034 81 33.2317V25.6586C81 22.5641 79.3198 19.8502 76.8135 18.3588ZM39.3198 4.89338H66.7793L71.3101 17.1419H49.2079L46.9155 10.9444H37.0816L39.3198 4.89338ZM14.697 15.6321H43.5962L48.42 28.6726H9.87339L14.697 15.6321ZM13.662 52.6216C13.662 53.9918 12.5334 55.1064 11.146 55.1064C9.75868 55.1064 8.63018 53.9916 8.63018 52.6216V51.5259H13.662V52.6216V52.6216ZM24.8337 46.8384V42.6384H33.4598V46.8384H24.8337ZM38.206 46.8384V37.9507H20.0874V46.8384H18.4083H6.02605C5.32043 46.8384 4.74629 46.2713 4.74629 45.5743V37.1895C4.74629 35.0781 6.48564 33.3603 8.62337 33.3603H49.6699C51.8078 33.3603 53.5471 35.0781 53.5471 37.1895V45.5743C53.5471 46.2713 52.973 46.8384 52.2674 46.8384H39.8851H38.206V46.8384ZM49.6634 52.6216C49.6634 53.9918 48.5348 55.1064 47.1474 55.1064C45.7601 55.1064 44.6316 53.9916 44.6316 52.6216V51.5259H49.6634V52.6216ZM57.8489 34.4957C57.164 32.4726 55.7309 30.7858 53.8745 29.7574L50.9419 21.8295H72.3766C74.5145 21.8295 76.2537 23.5473 76.2537 25.6588V33.2319C76.2537 33.9288 75.6796 34.4958 74.974 34.4958H63.2022H57.8489V34.4957ZM72.5434 40.1254C72.5434 41.3766 71.5126 42.3944 70.2459 42.3944C68.9791 42.3944 67.9485 41.3764 67.9485 40.1254V39.1835H72.5434V40.1254Z" fill="#001D35"/>
</svg>
