<svg width="29" height="18" viewBox="0 0 29 18" fill="none" xmlns="http://www.w3.org/2000/svg">
<path d="M0.0625 0.21875V17.75H28.9375V0.21875H0.0625ZM4.1875 2.28125H24.8125C24.8125 2.82826 25.0298 3.35286 25.4166 3.73966C25.8034 4.12645 26.328 4.34375 26.875 4.34375V13.625C26.328 13.625 25.8034 13.8423 25.4166 14.2291C25.0298 14.6159 24.8125 15.1405 24.8125 15.6875H4.1875C4.1875 15.1405 3.9702 14.6159 3.58341 14.2291C3.19661 13.8423 2.67201 13.625 2.125 13.625V4.34375C2.67201 4.34375 3.19661 4.12645 3.58341 3.73966C3.9702 3.35286 4.1875 2.82826 4.1875 2.28125ZM14.5 4.34375C12.2199 4.34375 10.375 6.42275 10.375 8.98438C10.375 11.546 12.2199 13.625 14.5 13.625C16.7801 13.625 18.625 11.546 18.625 8.98438C18.625 6.42275 16.7801 4.34375 14.5 4.34375ZM14.5 6.40625C15.6364 6.40625 16.5625 7.56228 16.5625 8.98438C16.5625 10.4065 15.6364 11.5625 14.5 11.5625C13.3636 11.5625 12.4375 10.4065 12.4375 8.98438C12.4375 7.56228 13.3636 6.40625 14.5 6.40625ZM6.76562 7.4375C6.56242 7.43757 6.36122 7.47766 6.1735 7.55549C5.98579 7.63331 5.81525 7.74735 5.67161 7.89108C5.52796 8.03482 5.41404 8.20544 5.33634 8.39321C5.25864 8.58097 5.21868 8.7822 5.21875 8.98541C5.21882 9.18861 5.25891 9.38982 5.33674 9.57753C5.41456 9.76524 5.5286 9.93578 5.67233 10.0794C5.81607 10.2231 5.98669 10.337 6.17446 10.4147C6.36222 10.4924 6.56345 10.5323 6.76666 10.5323C7.17705 10.5321 7.57058 10.369 7.86068 10.0787C8.15077 9.78841 8.31367 9.39477 8.31353 8.98438C8.31339 8.57398 8.15024 8.18045 7.85995 7.89036C7.56966 7.60026 7.17602 7.43736 6.76562 7.4375V7.4375ZM22.2344 7.4375C22.0312 7.43757 21.83 7.47766 21.6423 7.55549C21.4545 7.63331 21.284 7.74735 21.1404 7.89108C20.9967 8.03482 20.8828 8.20544 20.8051 8.39321C20.7274 8.58097 20.6874 8.7822 20.6875 8.98541C20.6876 9.18861 20.7277 9.38982 20.8055 9.57753C20.8833 9.76524 20.9973 9.93578 21.1411 10.0794C21.2848 10.2231 21.4554 10.337 21.6432 10.4147C21.831 10.4924 22.0322 10.5323 22.2354 10.5323C22.6458 10.5321 23.0393 10.369 23.3294 10.0787C23.6195 9.78841 23.7824 9.39477 23.7823 8.98438C23.7821 8.57398 23.619 8.18045 23.3287 7.89036C23.0384 7.60026 22.6448 7.43736 22.2344 7.4375V7.4375Z" fill="#001D35"/>
</svg>
