<svg width="22" height="21" viewBox="0 0 22 21" fill="none" xmlns="http://www.w3.org/2000/svg">
<path d="M19.5556 0H2.44444C1.1 0 0 1.05 0 2.33333V18.6667C0 19.9512 1.1 21 2.44444 21H19.5556C20.9 21 22 19.9512 22 18.6667V2.33333C22 1.05 20.9 0 19.5556 0ZM10.9804 16.9435C12.7757 16.9432 14.4974 16.2622 15.7667 15.0504C17.036 13.8385 17.7491 12.195 17.7491 10.4813C17.7491 10.087 17.6966 9.70667 17.6232 9.33333H19.5556V17.752C19.5556 17.858 19.5336 17.963 19.491 18.0609C19.4484 18.1588 19.386 18.2477 19.3073 18.3225C19.2286 18.3973 19.1352 18.4565 19.0324 18.4967C18.9297 18.537 18.8196 18.5575 18.7086 18.557H3.29144C3.18039 18.5575 3.07033 18.537 2.96759 18.4967C2.86485 18.4565 2.77145 18.3973 2.69275 18.3225C2.61405 18.2477 2.5516 18.1588 2.50899 18.0609C2.46638 17.963 2.44444 17.858 2.44444 17.752V9.33333H4.33767C4.26311 9.70667 4.21056 10.087 4.21056 10.4813C4.21088 12.1951 4.92424 13.8386 6.19377 15.0504C7.4633 16.2623 9.18506 16.9432 10.9804 16.9435V16.9435ZM6.75033 10.4813C6.75033 9.95108 6.85975 9.42601 7.07233 8.93612C7.28491 8.44623 7.5965 8.0011 7.9893 7.62615C8.38211 7.25121 8.84843 6.95378 9.36165 6.75086C9.87487 6.54794 10.4249 6.4435 10.9804 6.4435C11.536 6.4435 12.086 6.54794 12.5992 6.75086C13.1125 6.95378 13.5788 7.25121 13.9716 7.62615C14.3644 8.0011 14.676 8.44623 14.8886 8.93612C15.1011 9.42601 15.2106 9.95108 15.2106 10.4813C15.2106 11.5522 14.7649 12.5793 13.9716 13.3365C13.1783 14.0938 12.1023 14.5192 10.9804 14.5192C9.85855 14.5192 8.7826 14.0938 7.9893 13.3365C7.196 12.5793 6.75033 11.5522 6.75033 10.4813V10.4813ZM18.7086 5.83333H16.7347C16.5106 5.83272 16.2958 5.74746 16.1373 5.59619C15.9788 5.44492 15.8895 5.23993 15.8889 5.026V3.1395C15.8889 2.69383 16.2678 2.33333 16.7334 2.33333H18.7073C19.1767 2.33333 19.5556 2.69383 19.5556 3.1395V5.02483C19.5556 5.46933 19.1767 5.83333 18.7086 5.83333Z" fill="white"/>
</svg>
