<svg width="29" height="22" viewBox="0 0 29 22" fill="none" xmlns="http://www.w3.org/2000/svg">
<path d="M14.9157 11.2847C15.62 10.687 16.1849 9.94773 16.5721 9.11709C16.9593 8.28644 17.1597 7.38386 17.1597 6.47059C17.1597 4.75448 16.4643 3.10866 15.2266 1.89519C13.9889 0.681721 12.3102 2.31532e-07 10.5598 2.31532e-07C8.8094 2.31532e-07 7.1307 0.681721 5.89298 1.89519C4.65526 3.10866 3.95992 4.75448 3.95992 6.47059C3.95991 7.38386 4.1603 8.28644 4.54748 9.11709C4.93466 9.94773 5.49957 10.687 6.20388 11.2847C4.3561 12.105 2.7884 13.4297 1.68822 15.1005C0.588042 16.7712 0.00194281 18.7172 0 20.7059C0 21.0491 0.139068 21.3783 0.386611 21.621C0.634155 21.8637 0.969895 22 1.31997 22C1.67005 22 2.00579 21.8637 2.25334 21.621C2.50088 21.3783 2.63995 21.0491 2.63995 20.7059C2.63995 18.6466 3.47436 16.6716 4.95962 15.2154C6.44488 13.7592 8.45932 12.9412 10.5598 12.9412C12.6603 12.9412 14.6747 13.7592 16.16 15.2154C17.6452 16.6716 18.4796 18.6466 18.4796 20.7059C18.4796 21.0491 18.6187 21.3783 18.8663 21.621C19.1138 21.8637 19.4495 22 19.7996 22C20.1497 22 20.4854 21.8637 20.733 21.621C20.9805 21.3783 21.1196 21.0491 21.1196 20.7059C21.1176 18.7172 20.5315 16.7712 19.4314 15.1005C18.3312 13.4297 16.7635 12.105 14.9157 11.2847V11.2847ZM10.5598 10.3529C9.77659 10.3529 9.01098 10.1252 8.35978 9.69865C7.70857 9.27205 7.20102 8.66571 6.9013 7.9563C6.60159 7.24689 6.52317 6.46628 6.67596 5.71318C6.82875 4.96008 7.2059 4.26831 7.75971 3.72535C8.31351 3.18239 9.0191 2.81264 9.78725 2.66283C10.5554 2.51303 11.3516 2.58992 12.0752 2.88376C12.7988 3.17761 13.4172 3.67522 13.8523 4.31367C14.2875 4.95212 14.5197 5.70273 14.5197 6.47059C14.5197 7.50025 14.1025 8.48774 13.3599 9.21583C12.6173 9.94391 11.61 10.3529 10.5598 10.3529ZM23.4163 10.7671C24.2611 9.83443 24.8129 8.68231 25.0053 7.44938C25.1978 6.21645 25.0227 4.95527 24.5011 3.81765C23.9794 2.68002 23.1336 1.71444 22.0653 1.03714C20.997 0.359829 19.7518 -0.000333365 18.4796 2.31532e-07C18.1296 2.31532e-07 17.7938 0.136344 17.5463 0.379038C17.2987 0.621733 17.1597 0.950897 17.1597 1.29412C17.1597 1.63734 17.2987 1.9665 17.5463 2.2092C17.7938 2.45189 18.1296 2.58824 18.4796 2.58824C19.5299 2.58824 20.5371 2.99727 21.2797 3.72535C22.0224 4.45343 22.4396 5.44092 22.4396 6.47059C22.4377 7.15031 22.2538 7.81764 21.9064 8.40584C21.5589 8.99404 21.06 9.48249 20.4596 9.82235C20.2639 9.93303 20.1004 10.0911 19.9849 10.2814C19.8693 10.4718 19.8055 10.688 19.7996 10.9094C19.7941 11.1291 19.8457 11.3466 19.9496 11.5413C20.0536 11.736 20.2064 11.9016 20.3936 12.0224L20.9084 12.3588L21.08 12.4494C22.6711 13.1893 24.0134 14.3595 24.9488 15.8223C25.8842 17.2851 26.3738 18.9794 26.3599 20.7059C26.3599 21.0491 26.499 21.3783 26.7465 21.621C26.994 21.8637 27.3298 22 27.6799 22C28.0299 22 28.3657 21.8637 28.6132 21.621C28.8608 21.3783 28.9998 21.0491 28.9998 20.7059C29.0106 18.72 28.5033 16.7643 27.526 15.0248C26.5488 13.2852 25.1341 11.8196 23.4163 10.7671V10.7671Z" fill="#001D35"/>
</svg>
