<svg width="22" height="21" viewBox="0 0 22 21" fill="none" xmlns="http://www.w3.org/2000/svg">
<path d="M19.7474 5.22753C19.757 5.45506 19.7605 5.6854 19.7605 5.91293C19.7605 12.9214 15.2207 21 6.91924 21C4.36891 21 1.99793 20.1222 0 18.6166C1.18175 18.7844 2.38008 18.6771 3.5265 18.3007C4.67292 17.9242 5.74494 17.2861 6.6813 16.4228C5.73963 16.4018 4.82706 16.0358 4.07117 15.3758C3.31528 14.7158 2.75388 13.7948 2.46543 12.7416C3.14225 12.8902 3.83881 12.8591 4.50402 12.6503C3.48247 12.407 2.56396 11.7562 1.90413 10.8084C1.24431 9.86052 0.883759 8.67385 0.883587 7.44944V7.38343C1.51034 7.79298 2.21132 8.02074 2.92815 8.04776C1.97148 7.29858 1.29427 6.14877 1.03474 4.83302C0.775209 3.51727 0.952931 2.13477 1.53163 0.967704C2.66486 2.60599 4.07879 3.94593 5.68159 4.9005C7.28439 5.85507 9.04021 6.40291 10.835 6.50843C10.7574 6.11183 10.7184 5.70612 10.719 5.29916C10.719 4.60315 10.8357 3.91395 11.0625 3.27094C11.2893 2.62792 11.6217 2.04369 12.0407 1.5516C12.4598 1.05951 12.9572 0.669203 13.5047 0.402978C14.0521 0.136753 14.6389 -0.00017743 15.2314 7.04194e-06C15.8489 -0.00117591 16.46 0.146692 17.0269 0.434439C17.5937 0.722186 18.1042 1.14367 18.5266 1.67276C19.5371 1.43779 20.5062 1.00275 21.3926 0.386243C21.0555 1.61406 20.3502 2.65622 19.4078 3.31883C20.3025 3.19424 21.1762 2.91303 22 2.48456C21.3948 3.54978 20.6319 4.47882 19.7474 5.22753V5.22753Z" fill="white"/>
</svg>
