<svg width="28" height="28" viewBox="0 0 28 28" fill="none" xmlns="http://www.w3.org/2000/svg">
<path d="M25.76 9.96323C25.2873 10.1796 24.7876 10.3314 24.2744 10.4143C25.0952 12.7511 25.0978 15.2974 24.2819 17.6358C23.466 19.9743 21.8799 21.9662 19.7835 23.2851C17.6872 24.604 15.2051 25.1717 12.7438 24.8952C10.2826 24.6186 7.98835 23.5141 6.23705 21.7628C4.48575 20.0115 3.38131 17.7173 3.10473 15.256C2.82816 12.7948 3.39585 10.3127 4.71478 8.21634C6.03371 6.12003 8.02563 4.53393 10.3641 3.71799C12.7025 2.90205 15.2488 2.90468 17.5856 3.72545C17.6684 3.21223 17.8202 2.71253 18.0367 2.23989C15.366 1.31645 12.4611 1.32583 9.79649 2.26653C7.13185 3.20722 4.8649 5.02362 3.3659 7.41908C1.8669 9.81453 1.22443 12.6475 1.54341 15.4552C1.8624 18.263 3.12399 20.8796 5.12214 22.8778C7.12029 24.8759 9.73691 26.1375 12.5447 26.4565C15.3524 26.7755 18.1854 26.133 20.5808 24.634C22.9763 23.135 24.7927 20.868 25.7334 18.2034C26.6741 15.5388 26.6834 12.6339 25.76 9.96323V9.96323Z" fill="#001D35"/>
<path d="M15.75 4.48786C17.1176 5.95727 18.1499 7.70606 18.7756 9.61342H14.5833V4.35564H13.4167V9.62119H9.22445C9.8514 7.71038 10.8864 5.95879 12.2578 4.48786C11.5802 4.61052 10.9178 4.8061 10.2822 5.07119C9.28003 6.45145 8.51509 7.98922 8.0189 9.62119H5.39779C5.19134 10.0306 5.01459 10.4543 4.8689 10.889H7.69223C7.47312 11.9116 7.36104 12.9543 7.35778 14.0001C7.35993 15.144 7.49038 16.2841 7.74667 17.399H4.99334C5.15425 17.8349 5.3466 18.2586 5.5689 18.6667H8.08112C8.55728 20.1568 9.26319 21.5634 10.1733 22.8356C10.8251 23.1152 11.506 23.3213 12.2033 23.4501C10.9339 22.0655 9.95771 20.4384 9.33334 18.6667H13.4245V23.5979H14.5911V18.6667H18.6667C18.0402 20.4391 17.0612 22.0663 15.7889 23.4501C16.4895 23.3168 17.1731 23.1055 17.8267 22.8201C18.7354 21.5526 19.4412 20.1514 19.9189 18.6667H22.4078C22.6291 18.2662 22.8214 17.8503 22.9833 17.4223H20.2222C20.4785 16.3074 20.609 15.1674 20.6111 14.0234C20.6079 12.9776 20.4958 11.9349 20.2767 10.9123H23.0767C23.03 10.7801 22.9833 10.6556 22.9289 10.5312C21.9717 10.4712 21.0443 10.1746 20.23 9.66786H19.95C19.95 9.5823 19.8878 9.50453 19.8645 9.41897C19.1691 8.91178 18.595 8.25664 18.1834 7.50077C17.7719 6.7449 17.5331 5.90713 17.4844 5.04786C16.9253 4.8069 16.3445 4.6194 15.75 4.48786V4.48786ZM13.4167 17.3912H8.95223C8.40465 15.2506 8.38064 13.0097 8.88223 10.8579H13.4167V17.3912ZM19.4444 14.0001C19.4406 15.1462 19.2969 16.2876 19.0167 17.399H14.5833V10.889H19.1178C19.3412 11.9108 19.4508 12.9542 19.4444 14.0001Z" fill="#001D35"/>
<path d="M23.3333 8.5556C25.4811 8.5556 27.2222 6.81448 27.2222 4.66671C27.2222 2.51893 25.4811 0.777817 23.3333 0.777817C21.1856 0.777817 19.4444 2.51893 19.4444 4.66671C19.4444 6.81448 21.1856 8.5556 23.3333 8.5556Z" fill="#001D35"/>
</svg>
