<svg width="75" height="76" viewBox="0 0 75 76" fill="none" xmlns="http://www.w3.org/2000/svg">
<path d="M64.1698 11.0532C57.2215 3.8892 47.6165 0 37.807 0C16.9623 0 0.204492 16.9891 0.408691 37.6625C0.408691 44.2126 2.24795 50.5582 5.31357 56.2893L0 75.7347L19.8231 70.6175C25.3409 73.688 31.4716 75.1209 37.6028 75.1209C58.2434 75.1209 75.0012 58.1315 75.0012 37.4583C75.0012 27.4284 71.1182 18.0126 64.1701 11.0532H64.1698ZM37.807 68.7756C32.2893 68.7756 26.7715 67.343 22.0711 64.4773L20.845 63.8632L8.99209 66.9334L12.0574 55.2664L11.24 54.0381C2.24795 39.5053 6.53965 20.2641 21.2537 11.2577C35.9678 2.25154 54.9735 6.55008 63.9656 21.2876C72.9574 36.0252 68.6657 55.0613 53.952 64.0677C49.2513 67.1379 43.5293 68.7753 37.807 68.7753V68.7756ZM55.7909 46.0554L53.543 45.0319C53.543 45.0319 50.2734 43.5991 48.2297 42.5756C48.0252 42.5756 47.821 42.3707 47.6165 42.3707C47.0033 42.3707 46.5946 42.5756 46.1859 42.7804C46.1859 42.7804 45.9817 42.9849 43.1206 46.2599C42.9161 46.6693 42.5074 46.8741 42.0987 46.8741H41.8942C41.69 46.8741 41.2813 46.6693 41.0769 46.4648L40.055 46.0554C37.807 45.0319 35.7636 43.8036 34.1285 42.1662C33.7198 41.7569 33.1066 41.3475 32.6979 40.9382C31.2674 39.5053 29.8368 37.8677 28.8152 36.0255L28.6107 35.6161C28.4065 35.4113 28.4065 35.2068 28.2021 34.7974C28.2021 34.3881 28.2021 33.9787 28.4065 33.7739C28.4065 33.7739 29.2239 32.7504 29.8368 32.1366C30.2458 31.7269 30.45 31.1131 30.8587 30.7037C31.2674 30.0895 31.4719 29.2709 31.2674 28.6567C31.0632 27.6332 28.6107 22.1066 27.9979 20.8786C27.5889 20.2644 27.1805 20.0599 26.5673 19.8551H24.3193C23.9104 19.8551 23.502 20.0599 23.093 20.0599L22.8885 20.2644C22.4798 20.4692 22.0711 20.8786 21.6624 21.0831C21.2537 21.4927 21.0492 21.9018 20.6405 22.3114C19.21 24.1536 18.3926 26.4052 18.3926 28.6567C18.3926 30.2941 18.8013 31.9317 19.4145 33.3646L19.6189 33.9787C21.4582 37.8677 23.9104 41.3475 27.1805 44.4177L27.9979 45.2364C28.6107 45.8506 29.2239 46.2599 29.6326 46.8738C33.9243 50.5585 38.8289 53.2194 44.3467 54.6522C44.9599 54.8567 45.7772 54.8567 46.3904 55.0616H48.4339C49.4558 55.0616 50.6818 54.6522 51.4995 54.2429C52.1124 53.8335 52.5211 53.8335 52.9298 53.4242L53.3388 53.0145C53.7475 52.6052 54.1562 52.4007 54.5648 51.9913C54.9735 51.582 55.3822 51.1726 55.5867 50.763C55.9954 49.9443 56.1996 48.9208 56.4041 47.8976V46.4648C56.4041 46.4648 56.1996 46.2599 55.7909 46.0554V46.0554Z" fill="white"/>
</svg>
